<svg xmlns="http://www.w3.org/2000/svg" width="1200" height="800" viewBox="0 0 1200 800">
  <defs><linearGradient id="g" x1="0" x2="1" y1="0" y2="1"><stop stop-color="#eef7fb"/><stop offset="1" stop-color="#dfe8ff"/></linearGradient><linearGradient id="p" x1="0" x2="1"><stop stop-color="#5f7fa8"/><stop offset="1" stop-color="#8b86b8"/></linearGradient><filter id="s"><feDropShadow dx="0" dy="24" stdDeviation="24" flood-color="#0d1f54" flood-opacity=".18"/></filter></defs>
  <rect width="1200" height="800" fill="url(#g)"/><circle cx="230" cy="170" r="150" fill="#91c5d4" opacity=".22"/><circle cx="1010" cy="650" r="230" fill="#8b86b8" opacity=".14"/>
  <g filter="url(#s)"><rect x="420" y="90" width="360" height="620" rx="58" fill="#07102f"/><rect x="450" y="135" width="300" height="530" rx="36" fill="#fff"/><rect x="486" y="170" width="228" height="70" rx="20" fill="url(#p)"/><text x="600" y="216" text-anchor="middle" font-family="Arial" font-size="34" font-weight="700" fill="#fff">MBote</text><circle cx="520" cy="304" r="30" fill="#91c5d4"/><rect x="570" y="282" width="126" height="18" rx="9" fill="#d6def3"/><rect x="570" y="314" width="96" height="14" rx="7" fill="#edf1fb"/><circle cx="520" cy="390" r="30" fill="#8b86b8"/><rect x="570" y="370" width="132" height="18" rx="9" fill="#d6def3"/><rect x="570" y="402" width="82" height="14" rx="7" fill="#edf1fb"/><rect x="492" y="510" width="216" height="64" rx="28" fill="#edf4ff"/><circle cx="518" cy="620" r="16" fill="#91c5d4"/><circle cx="574" cy="620" r="16" fill="#8b86b8"/><circle cx="630" cy="620" r="16" fill="#91c5d4"/><circle cx="686" cy="620" r="16" fill="#8b86b8"/></g>
</svg>
